<svg width="50" height="50" viewBox="0 0 50 50" fill="none" xmlns="http://www.w3.org/2000/svg">
<path d="M24.107 7.39284C24.107 6.49276 24.107 6.04271 23.9318 5.69893C23.7778 5.39652 23.5319 5.15066 23.2295 4.99658C22.8857 4.82141 22.4357 4.82141 21.5356 4.82141H17.0356C16.1355 4.82141 15.6854 4.82141 15.3417 4.99658C15.0393 5.15066 14.7934 5.39652 14.6393 5.69893C14.4641 6.04271 14.4641 6.49276 14.4641 7.39284V11.8928C14.4641 12.7929 14.4641 13.243 14.289 13.5868C14.1349 13.8892 13.889 14.135 13.5866 14.2891C13.2428 14.4643 12.7928 14.4643 11.8927 14.4643H7.39272C6.49263 14.4643 6.04259 14.4643 5.6988 14.6394C5.3964 14.7935 5.15054 15.0394 4.99646 15.3418C4.82129 15.6856 4.82129 16.1356 4.82129 17.0357V21.5357C4.82129 22.4358 4.82129 22.8858 4.99646 23.2296C5.15054 23.532 5.3964 23.7779 5.6988 23.932C6.04259 24.1071 6.49263 24.1071 7.39272 24.1071H11.8927C12.7928 24.1071 13.2428 24.1071 13.5866 24.2823C13.889 24.4364 14.1349 24.6822 14.289 24.9846C14.4641 25.3284 14.4641 25.7785 14.4641 26.6786V31.1786C14.4641 32.0786 14.4641 32.5287 14.6393 32.8725C14.7934 33.1749 15.0393 33.4207 15.3417 33.5748C15.6854 33.75 16.1355 33.75 17.0356 33.75H21.5356C22.4357 33.75 22.8857 33.75 23.2295 33.5748C23.5319 33.4207 23.7778 33.1749 23.9318 32.8725C24.107 32.5287 24.107 32.0786 24.107 31.1786V26.6786C24.107 25.7785 24.107 25.3284 24.2822 24.9846C24.4363 24.6822 24.6821 24.4364 24.9845 24.2823C25.3283 24.1071 25.7783 24.1071 26.6784 24.1071H31.1784C32.0785 24.1071 32.5286 24.1071 32.8723 23.932C33.1748 23.7779 33.4206 23.532 33.5747 23.2296C33.7499 22.8858 33.7499 22.4358 33.7499 21.5357V17.0357C33.7499 16.1356 33.7499 15.6856 33.5747 15.3418C33.4206 15.0394 33.1748 14.7935 32.8723 14.6394C32.5286 14.4643 32.0785 14.4643 31.1784 14.4643L26.6784 14.4643C25.7783 14.4643 25.3283 14.4643 24.9845 14.2891C24.6821 14.135 24.4363 13.8892 24.2822 13.5868C24.107 13.243 24.107 12.7929 24.107 11.8928V7.39284Z" stroke="#F5F5F5" stroke-width="2" stroke-linecap="round" stroke-linejoin="round"/>
<path d="M41.4286 31.5238C41.4286 30.9904 41.4286 30.7237 41.3248 30.52C41.2335 30.3408 41.0878 30.1951 40.9086 30.1038C40.7048 30 40.4381 30 39.9048 30H37.2381C36.7047 30 36.438 30 36.2343 30.1038C36.0551 30.1951 35.9094 30.3408 35.8181 30.52C35.7143 30.7237 35.7143 30.9904 35.7143 31.5238V34.1905C35.7143 34.7239 35.7143 34.9906 35.6105 35.1943C35.5192 35.3735 35.3735 35.5192 35.1943 35.6105C34.9906 35.7143 34.7239 35.7143 34.1905 35.7143H31.5238C30.9904 35.7143 30.7237 35.7143 30.52 35.8181C30.3408 35.9094 30.1951 36.0551 30.1038 36.2343C30 36.438 30 36.7047 30 37.2381V39.9048C30 40.4381 30 40.7048 30.1038 40.9086C30.1951 41.0878 30.3408 41.2335 30.52 41.3248C30.7237 41.4286 30.9904 41.4286 31.5238 41.4286H34.1905C34.7239 41.4286 34.9906 41.4286 35.1943 41.5324C35.3735 41.6237 35.5192 41.7694 35.6105 41.9486C35.7143 42.1523 35.7143 42.419 35.7143 42.9524V45.619C35.7143 46.1524 35.7143 46.4191 35.8181 46.6228C35.9094 46.802 36.0551 46.9477 36.2343 47.0391C36.438 47.1429 36.7047 47.1429 37.2381 47.1429H39.9048C40.4381 47.1429 40.7048 47.1429 40.9086 47.0391C41.0878 46.9477 41.2335 46.802 41.3248 46.6228C41.4286 46.4191 41.4286 46.1524 41.4286 45.619V42.9524C41.4286 42.419 41.4286 42.1523 41.5324 41.9486C41.6237 41.7694 41.7694 41.6237 41.9486 41.5324C42.1523 41.4286 42.419 41.4286 42.9524 41.4286H45.619C46.1524 41.4286 46.4191 41.4286 46.6228 41.3248C46.802 41.2335 46.9477 41.0878 47.0391 40.9086C47.1429 40.7048 47.1429 40.4381 47.1429 39.9048V37.2381C47.1429 36.7047 47.1429 36.438 47.0391 36.2343C46.9477 36.0551 46.802 35.9094 46.6228 35.8181C46.4191 35.7143 46.1524 35.7143 45.619 35.7143L42.9524 35.7143C42.419 35.7143 42.1523 35.7143 41.9486 35.6105C41.7694 35.5192 41.6237 35.3735 41.5324 35.1943C41.4286 34.9906 41.4286 34.7239 41.4286 34.1905V31.5238Z" stroke="#F5F5F5" stroke-width="2" stroke-linecap="round" stroke-linejoin="round"/>
</svg>
