<svg width="50" height="50" viewBox="0 0 50 50" fill="none" xmlns="http://www.w3.org/2000/svg">
<path d="M25 43.75L24.7916 43.4373C23.3444 41.2666 22.6208 40.1812 21.6648 39.3955C20.8185 38.6998 19.8433 38.1779 18.795 37.8596C17.611 37.5 16.3065 37.5 13.6976 37.5H10.8334C8.4998 37.5 7.33303 37.5 6.44173 37.0459C5.65772 36.6464 5.0203 36.009 4.62083 35.225C4.16669 34.3337 4.16669 33.1669 4.16669 30.8333V12.9167C4.16669 10.5831 4.16669 9.41634 4.62083 8.52504C5.0203 7.74103 5.65772 7.10361 6.44173 6.70414C7.33303 6.25 8.4998 6.25 10.8334 6.25H11.6667C16.3338 6.25 18.6673 6.25 20.4499 7.15828C22.018 7.95722 23.2928 9.23206 24.0917 10.8001C25 12.5827 25 14.9162 25 19.5833M25 43.75V19.5833M25 43.75L25.2085 43.4373C26.6556 41.2666 27.3792 40.1812 28.3352 39.3955C29.1816 38.6998 30.1568 38.1779 31.205 37.8596C32.3891 37.5 33.6935 37.5 36.3025 37.5H39.1667C41.5002 37.5 42.667 37.5 43.5583 37.0459C44.3423 36.6464 44.9797 36.009 45.3792 35.225C45.8334 34.3337 45.8334 33.1669 45.8334 30.8333V12.9167C45.8334 10.5831 45.8334 9.41634 45.3792 8.52504C44.9797 7.74103 44.3423 7.10361 43.5583 6.70414C42.667 6.25 41.5002 6.25 39.1667 6.25H38.3334C33.6662 6.25 31.3327 6.25 29.5501 7.15828C27.9821 7.95722 26.7072 9.23206 25.9083 10.8001C25 12.5827 25 14.9162 25 19.5833" stroke="#F5F5F5" stroke-width="2" stroke-linecap="round" stroke-linejoin="round"/>
</svg>
