<svg width="45" height="45" viewBox="0 0 45 45" fill="none" xmlns="http://www.w3.org/2000/svg">
<g clip-path="url(#clip0_353_527)">
<path d="M13.9751 8.28622C13.5248 8.58255 12.6436 9.27971 12.6966 9.3111C12.7213 9.32233 13.011 9.1151 13.3534 8.85817C13.6835 8.59563 14.1899 8.25851 14.4876 8.09907C14.8988 7.88805 16.6562 7.12992 16.3865 7.22842C16.1887 7.30065 14.1559 8.16947 13.9751 8.28622ZM18.7236 6.58259C19.1284 6.51591 19.6243 6.44639 19.8279 6.44305C20.0316 6.4397 20.6408 6.44295 20.6576 6.40639C20.7045 6.28781 19.2224 6.35982 18.5941 6.53857C18.5941 6.53857 16.6021 7.09149 16.3865 7.22842C16.1401 7.38486 18.7236 6.58259 18.7236 6.58259ZM27.3055 11.9399C32.1973 11.2288 32.8327 11.1489 34.0117 11.1242C34.6799 11.1033 35.5315 11.1068 35.913 11.14C36.2911 11.1642 36.6827 11.1731 36.6084 11.1394C36.3605 11.027 34.4308 10.9609 33.2565 11.0246C32.6255 11.0623 31.2242 11.2291 30.148 11.3888C29.0662 11.5606 27.5818 11.7781 26.8441 11.8852C26.1063 11.9923 25.0475 11.8397 24.6272 12.2794C24.4923 12.3286 26.0538 12.123 27.3055 11.9399ZM3.2373 24.2191C3.23487 25.3663 6.28285 27.4996 8.75724 28.0772C9.60156 28.2761 11.2458 28.4771 11.6822 28.4394C11.8182 28.4202 11.3962 28.3613 10.7368 28.2977C9.12413 28.1258 8.32817 27.9194 6.93141 27.2932C5.08177 26.4469 3.56511 25.1849 3.36921 24.3231C3.30197 24.0128 3.24561 23.9726 3.2373 24.2191ZM37.8897 11.9703C38.3151 13.2453 37.6002 15.8803 36.3195 17.7581C35.6451 18.7552 35.2985 19.1354 34.219 20.118C33.3628 20.9075 33.2991 21.0626 34.1397 20.3397C35.5269 19.1433 36.5929 17.7496 37.2558 16.2394C38.0619 14.4335 37.7462 11.9679 37.7462 11.9679C37.7296 11.7922 37.6783 11.3421 37.7377 11.5185C37.7971 11.695 37.8303 11.7939 37.8897 11.9703ZM11.6822 28.4394C11.8802 28.4483 13.1041 28.4071 13.6676 28.3535L14.682 28.2468L14.4764 28.7277C13.5788 30.8308 12.9083 34.038 12.8543 36.4722C12.7813 40.1713 13.4705 42.0298 14.9954 42.2135C15.5244 42.2841 15.6301 42.2658 16.745 41.8586C18.8219 41.1002 20.5561 39.6857 22.8254 36.9092C23.9556 35.5225 25.7551 32.2513 25.8498 31.5066C25.8685 31.3679 25.1215 32.8344 24.8229 33.5014C23.6366 36.1361 20.5099 39.6721 18.1255 41.1009C17.3505 41.5665 16.0357 42.0669 15.4148 42.1313C13.8279 42.2949 13.0063 40.5457 12.9941 36.9994C12.9871 34.8614 13.3121 32.8152 14.0088 30.4811C14.5772 28.5894 15.2655 28.0845 15.2655 28.0845C15.2655 28.0845 15.5799 27.8885 14.7569 28.0673C14.3499 28.1551 13.6302 28.2556 13.1634 28.2942C11.9959 28.3756 11.2703 28.4072 11.6822 28.4394ZM32.8787 21.1959C32.8619 21.2324 32.4374 21.4889 31.9319 21.7749C31.2811 22.1933 31.4257 22.1931 31.4257 22.1931C31.4257 22.1931 31.8879 22.1157 33.0125 22.7803C36.7345 24.9617 40.0838 28.2327 40.9779 30.5743C41.4131 31.7139 41.3403 32.2477 40.6783 32.875C40.271 33.2571 38.6796 33.8383 37.6394 33.9848C34.7818 34.3892 29.8577 33.6208 27.3871 32.3824C26.9061 32.1422 25.7393 31.405 25.8498 31.5066C26.1498 31.7826 28.6716 33.0901 29.7018 33.3734C32.6414 34.1766 36.2895 34.4473 38.2548 34.0137C42.1371 33.1539 42.3659 31.2848 39.0556 27.472C37.3819 25.5571 34.6218 23.3998 32.4656 22.3409C32.1243 22.1714 31.8595 22.0144 31.8706 21.9901C31.8818 21.9657 32.1839 21.7641 32.5399 21.5428C32.8835 21.3158 34.2023 20.2645 34.1921 20.2378C34.1751 20.1933 32.9156 21.1316 32.8787 21.1959Z" fill="black"/>
<path d="M12.6966 9.3111C12.6436 9.27971 13.5248 8.58255 13.9751 8.28622C14.1559 8.16947 16.1887 7.30065 16.3865 7.22842M12.6966 9.3111C12.7213 9.32234 13.011 9.1151 13.3534 8.85817C13.6835 8.59562 14.1899 8.2585 14.4876 8.09907C14.8988 7.88805 16.6562 7.12992 16.3865 7.22842M12.6966 9.3111C12.4054 9.69793 11.2748 11.0071 11.3598 11.2297C11.4448 11.4523 11.626 11.4977 12.4191 11.482C12.7048 11.4791 12.8793 11.5067 12.7984 11.5362C12.5624 11.6427 11.7557 11.6228 11.4899 11.517C11.3165 11.4383 11.2377 11.4467 11.2414 11.5367C11.2326 11.6211 11.2112 11.6187 11.1772 11.5297C11.0198 11.1712 11.5519 10.0983 12.1876 9.72408C12.2042 9.60644 12.6504 9.29752 12.6966 9.3111ZM16.3865 7.22842C16.6021 7.09149 18.5941 6.53857 18.5941 6.53857C19.2224 6.35982 20.7045 6.28781 20.6576 6.40639M16.3865 7.22842C16.1401 7.38486 18.7236 6.58259 18.7236 6.58259C19.1284 6.51591 19.6243 6.44639 19.8279 6.44305C20.0316 6.4397 20.6408 6.44295 20.6576 6.40639M20.6576 6.40639C21.8793 6.38632 22.3983 7.77546 21.6885 8.39112C21.7016 8.63997 21.7404 8.84897 21.7742 8.85693C21.799 8.86817 21.8167 8.78053 21.7961 8.64603C21.7731 8.45155 21.8661 8.34654 22.3366 8.02255C22.6443 7.80875 22.9843 7.49184 23.0805 7.31466L23.3229 7.28408C23.4657 7.65802 23.2872 7.98992 22.5362 8.59893C22.0536 8.99837 21.8604 9.10951 21.7758 9.04908C21.6913 8.98865 21.6733 8.99522 21.7039 9.07535M21.7104 9.38747L21.7018 9.92829C21.6982 10.6702 21.7975 11.1716 21.9974 11.4537C22.1385 11.6355 22.1478 11.7132 22.0233 11.8703C21.789 12.1689 21.1601 12.5609 20.0209 13.1189L18.9862 13.6287M18.9862 13.6287L19.7055 13.366C20.563 13.063 21.6189 12.4745 21.998 12.0723C21.998 12.0723 22.2801 11.8746 22.2785 11.7873C22.276 11.6571 22.0113 11.195 22.0113 11.195M18.9862 13.6287L17.8071 14.0288C16.6303 14.4079 15.5281 14.5263 15.1732 14.3211C15.0143 14.227 14.9533 14.1478 14.998 14.0503C15.0707 13.8919 14.2458 12.5902 14.2458 12.5902C13.9242 12.2309 13.9242 12.2309 13.0772 12.2663C12.6126 12.2838 12.095 12.2699 11.9172 12.2334L11.6132 12.1618L11.756 12.5357C11.8546 12.7939 12.1109 13.1163 12.6196 13.5899C13.0212 13.9708 13.4827 14.482 13.651 14.735C13.9267 15.1618 13.9415 15.2274 13.8865 15.6736C13.8457 15.9422 13.7654 16.2149 13.7105 16.2857C13.6432 16.3509 12.2641 17.2197 10.6468 18.2161C6.53286 20.7228 5.55715 21.4139 4.21196 22.7472C3.53099 23.4321 3.48021 23.3796 4.13641 22.6835C5.32875 21.406 6.32804 20.6962 10.433 18.1928L13.6327 16.2431L13.7541 15.7828C13.8698 15.3348 13.872 15.3137 13.5704 14.8456C13.3071 14.4244 12.8275 13.9198 12.0912 13.3061C11.9682 13.1988 11.7479 12.8633 11.6144 12.5672C11.4774 12.2621 11.319 11.9547 11.2491 11.8788C11.1791 11.8029 11.1643 11.7373 11.2272 11.7143C11.2812 11.6946 11.3465 11.7316 11.3703 11.794C11.4587 12.0255 12.0115 12.1584 12.8439 12.1384C13.3119 12.1298 13.7 12.0997 13.7111 12.0754C13.7671 11.9535 13.2673 11.4766 13.1291 11.5169C13.0302 11.553 12.9798 11.5542 13.0381 11.4923M18.9862 13.6287L17.8035 13.9388C15.7427 14.4175 15.0891 14.4229 15.1609 13.9401C15.1762 13.7925 15.116 13.5812 15.012 13.4162C14.8719 13.1834 14.1266 12.1975 14.1266 12.1975M22.0113 11.195L21.8173 9.83843L21.8192 9.85091M22.0113 11.195L21.8192 9.85091M22.0708 9.12397C21.845 9.25714 21.8127 9.36025 21.8175 9.85561L21.8192 9.85091M22.0708 9.12397C22.4032 8.92141 23.126 8.29225 23.3367 8.0124L23.5015 7.80005L23.633 8.19531M22.0708 9.12397L21.8192 9.85091M23.6367 8.38937L23.6316 9.66993C23.5304 10.1025 23.898 10.9114 24.0294 11.2287C24.103 11.3945 24.65 12.3928 24.6272 12.2794M24.6272 12.2794C24.6102 11.3858 23.6771 10.2721 23.7674 9.56959C23.8952 8.5896 23.583 7.18187 23.1693 6.87644C22.8875 6.67501 22.4591 6.38178 21.944 6.42787C21.7258 6.44668 20.6587 6.40109 20.6587 6.40109M24.6272 12.2794C25.0475 11.8397 26.1063 11.9923 26.8441 11.8852C27.5818 11.7781 29.0662 11.5606 30.148 11.3888C31.2242 11.2291 32.6255 11.0623 33.2565 11.0246C34.4308 10.9609 36.3605 11.027 36.6084 11.1394C36.6827 11.1731 36.2911 11.1642 35.913 11.14C35.5315 11.1068 34.6799 11.1033 34.0117 11.1242C32.8327 11.1489 32.1973 11.2288 27.3055 11.9399C26.0538 12.123 24.4923 12.3286 24.6272 12.2794ZM13.5659 11.6414C13.5115 11.499 13.5497 11.4648 13.8184 11.4173C15.6727 11.0953 20.4221 9.34054 21.3719 8.6082C21.5549 8.47036 21.5065 8.47788 21.1335 8.65468M21.1335 8.65468C20.2414 9.0819 17.0848 10.3665 16.4598 10.5542M21.1335 8.65468L16.4598 10.5542M16.4598 10.5542C14.1521 11.2448 13.0381 11.4923 13.0381 11.4923M16.4598 10.5542L13.0381 11.4923M11.6822 28.4394C11.2458 28.4771 9.60156 28.2761 8.75724 28.0772C6.28285 27.4996 3.23487 25.3663 3.2373 24.2191C3.24561 23.9726 3.30197 24.0128 3.36921 24.3231C3.56511 25.1849 5.08177 26.4469 6.93141 27.2932C8.32817 27.9194 9.12413 28.1258 10.7368 28.2977C11.3962 28.3613 11.8182 28.4202 11.6822 28.4394ZM11.6822 28.4394C11.8802 28.4483 13.1041 28.4071 13.6676 28.3535L14.682 28.2468L14.4764 28.7277C13.5788 30.8308 12.9083 34.038 12.8543 36.4722C12.7813 40.1713 13.4705 42.0298 14.9954 42.2135C15.5244 42.2841 15.6301 42.2658 16.745 41.8586C18.8219 41.1002 20.5561 39.6857 22.8254 36.9092C23.9556 35.5225 25.7551 32.2513 25.8498 31.5066M11.6822 28.4394C11.2703 28.4072 11.9959 28.3756 13.1634 28.2942C13.6302 28.2556 14.3499 28.1551 14.7569 28.0673C15.5799 27.8885 15.2655 28.0845 15.2655 28.0845C15.2655 28.0845 14.5772 28.5894 14.0088 30.4811C13.3121 32.8152 12.9871 34.8614 12.9941 36.9994C13.0063 40.5457 13.8279 42.2949 15.4148 42.1313C16.0357 42.0669 17.3505 41.5665 18.1255 41.1009C20.5099 39.6721 23.6366 36.1361 24.8229 33.5014C25.1215 32.8344 25.8685 31.3679 25.8498 31.5066M25.8498 31.5066C25.7393 31.405 26.9061 32.1422 27.3871 32.3824C29.8577 33.6208 34.7818 34.3892 37.6394 33.9848C38.6796 33.8383 40.271 33.2571 40.6783 32.875C41.3403 32.2477 41.4131 31.7139 40.9779 30.5743C40.0838 28.2327 36.7345 24.9617 33.0125 22.7803C31.8879 22.1157 31.4257 22.1931 31.4257 22.1931C31.4257 22.1931 31.2811 22.1933 31.9319 21.7749C32.4374 21.4889 32.8619 21.2324 32.8787 21.1959C32.9156 21.1316 34.1751 20.1933 34.1921 20.2378C34.2023 20.2645 32.8835 21.3158 32.5399 21.5428C32.1839 21.7641 31.8818 21.9657 31.8706 21.9901C31.8595 22.0144 32.1243 22.1714 32.4656 22.3409C34.6218 23.3998 37.3819 25.5571 39.0556 27.472C42.3659 31.2848 42.1371 33.1539 38.2548 34.0137C36.2895 34.4473 32.6414 34.1766 29.7018 33.3734C28.6716 33.0901 26.1498 31.7826 25.8498 31.5066ZM37.8897 11.9703C38.3151 13.2453 37.6002 15.8803 36.3195 17.7581C35.6451 18.7552 35.2985 19.1354 34.219 20.118C33.3628 20.9075 33.2991 21.0626 34.1397 20.3397C35.5269 19.1433 36.5929 17.7496 37.2558 16.2394C38.0619 14.4335 37.7462 11.9679 37.7462 11.9679C37.7296 11.7922 37.6783 11.3421 37.7377 11.5185C37.7971 11.695 37.8303 11.7939 37.8897 11.9703Z" stroke="white" stroke-width="1.2"/>
</g>
<defs>
<clipPath id="clip0_353_527">
<rect width="45" height="45" fill="white"/>
</clipPath>
</defs>
</svg>
