<svg width="28" height="30" viewBox="0 0 28 30" fill="none" xmlns="http://www.w3.org/2000/svg">
<path d="M26.1022 20.521V9.36453C26.1017 8.87542 25.9725 8.39504 25.7278 7.97158C25.483 7.54813 25.1312 7.19649 24.7076 6.95193L14.9456 1.37367C14.5216 1.12888 14.0407 1 13.5511 1C13.0615 1 12.5805 1.12888 12.1565 1.37367L2.39456 6.95193C1.97098 7.19649 1.61916 7.54813 1.37439 7.97158C1.12961 8.39504 1.0005 8.87542 1 9.36453V20.521C1.0005 21.0102 1.12961 21.4905 1.37439 21.914C1.61916 22.3374 1.97098 22.6891 2.39456 22.9336L12.1565 28.5119C12.5805 28.7567 13.0615 28.8856 13.5511 28.8856C14.0407 28.8856 14.5216 28.7567 14.9456 28.5119L24.7076 22.9336C25.1312 22.6891 25.483 22.3374 25.7278 21.914C25.9725 21.4905 26.1017 21.0102 26.1022 20.521Z" stroke="#F5F5F5" stroke-width="2" stroke-linecap="round" stroke-linejoin="round"/>
<path d="M1.37598 7.91418L13.5505 14.9567L25.7251 7.91418" stroke="#F5F5F5" stroke-width="2" stroke-linecap="round" stroke-linejoin="round"/>
<path d="M13.5508 29V14.9428" stroke="#F5F5F5" stroke-width="2" stroke-linecap="round" stroke-linejoin="round"/>
</svg>
