<svg width="50" height="50" viewBox="0 0 50 50" fill="none" xmlns="http://www.w3.org/2000/svg">
<path d="M23.5455 45.031C24.0068 45.3 24.2374 45.4346 24.5628 45.5044C24.8154 45.5585 25.1839 45.5585 25.4365 45.5044C25.762 45.4346 25.9926 45.3 26.4538 45.031C30.5123 42.6633 41.6663 35.2259 41.6663 25V17.0833C41.6663 14.846 41.6663 13.7274 41.3215 12.9333C40.971 12.1262 40.6217 11.6969 39.9029 11.1894C39.1957 10.69 37.8093 10.4017 35.0366 9.82502C31.9805 9.18943 29.6336 8.04172 27.488 6.38189C26.4591 5.58595 25.9446 5.18798 25.542 5.07943C25.1173 4.9649 24.8821 4.9649 24.4573 5.07943C24.0547 5.18798 23.5403 5.58595 22.5114 6.38189C20.3658 8.04172 18.0188 9.18943 14.9628 9.82502C12.19 10.4017 10.8037 10.69 10.0964 11.1894C9.37764 11.6969 9.02839 12.1262 8.67788 12.9333C8.33301 13.7274 8.33301 14.846 8.33301 17.0833V25C8.33301 35.2259 19.4871 42.6633 23.5455 45.031Z" stroke="white" stroke-width="2" stroke-linecap="round" stroke-linejoin="round"/>
</svg>
