<svg width="50" height="50" viewBox="0 0 50 50" fill="none" xmlns="http://www.w3.org/2000/svg">
<path d="M31.25 9.58333C31.25 8.41656 31.25 7.83317 31.0229 7.38752C30.8232 6.99552 30.5045 6.67681 30.1125 6.47707C29.6668 6.25 29.0834 6.25 27.9167 6.25H22.0833C20.9166 6.25 20.3332 6.25 19.8875 6.47707C19.4955 6.67681 19.1768 6.99552 18.9771 7.38752C18.75 7.83317 18.75 8.41656 18.75 9.58333V15.4167C18.75 16.5834 18.75 17.1668 18.5229 17.6125C18.3232 18.0045 18.0045 18.3232 17.6125 18.5229C17.1668 18.75 16.5834 18.75 15.4167 18.75H9.58333C8.41656 18.75 7.83317 18.75 7.38752 18.9771C6.99552 19.1768 6.67681 19.4955 6.47707 19.8875C6.25 20.3332 6.25 20.9166 6.25 22.0833V27.9167C6.25 29.0834 6.25 29.6668 6.47707 30.1125C6.67681 30.5045 6.99552 30.8232 7.38752 31.0229C7.83317 31.25 8.41656 31.25 9.58333 31.25H15.4167C16.5834 31.25 17.1668 31.25 17.6125 31.4771C18.0045 31.6768 18.3232 31.9955 18.5229 32.3875C18.75 32.8332 18.75 33.4166 18.75 34.5833V40.4167C18.75 41.5834 18.75 42.1668 18.9771 42.6125C19.1768 43.0045 19.4955 43.3232 19.8875 43.5229C20.3332 43.75 20.9166 43.75 22.0833 43.75H27.9167C29.0834 43.75 29.6668 43.75 30.1125 43.5229C30.5045 43.3232 30.8232 43.0045 31.0229 42.6125C31.25 42.1668 31.25 41.5834 31.25 40.4167V34.5833C31.25 33.4166 31.25 32.8332 31.4771 32.3875C31.6768 31.9955 31.9955 31.6768 32.3875 31.4771C32.8332 31.25 33.4166 31.25 34.5833 31.25H40.4167C41.5834 31.25 42.1668 31.25 42.6125 31.0229C43.0045 30.8232 43.3232 30.5045 43.5229 30.1125C43.75 29.6668 43.75 29.0834 43.75 27.9167V22.0833C43.75 20.9166 43.75 20.3332 43.5229 19.8875C43.3232 19.4955 43.0045 19.1768 42.6125 18.9771C42.1668 18.75 41.5834 18.75 40.4167 18.75L34.5833 18.75C33.4166 18.75 32.8332 18.75 32.3875 18.5229C31.9955 18.3232 31.6768 18.0045 31.4771 17.6125C31.25 17.1668 31.25 16.5834 31.25 15.4167V9.58333Z" stroke="#F5F5F5" stroke-width="2" stroke-linecap="round" stroke-linejoin="round"/>
</svg>
