<svg width="50" height="50" viewBox="0 0 50 50" fill="none" xmlns="http://www.w3.org/2000/svg">
<path d="M45.8334 43.75V39.5833C45.8334 35.7003 43.1776 32.4376 39.5834 31.5125M32.2917 6.85575C35.3457 8.09197 37.5 11.0861 37.5 14.5833C37.5 18.0806 35.3457 21.0747 32.2917 22.3109M35.4167 43.75C35.4167 39.8672 35.4167 37.9257 34.7823 36.3943C33.9366 34.3524 32.3143 32.7301 30.2724 31.8843C28.741 31.25 26.7995 31.25 22.9167 31.25H16.6667C12.7838 31.25 10.8424 31.25 9.31099 31.8843C7.26909 32.7301 5.64681 34.3524 4.80102 36.3943C4.16669 37.9257 4.16669 39.8672 4.16669 43.75M28.125 14.5833C28.125 19.1857 24.3941 22.9167 19.7917 22.9167C15.1893 22.9167 11.4584 19.1857 11.4584 14.5833C11.4584 9.98096 15.1893 6.25 19.7917 6.25C24.3941 6.25 28.125 9.98096 28.125 14.5833Z" stroke="#F5F5F5" stroke-width="2" stroke-linecap="round" stroke-linejoin="round"/>
</svg>
