<svg width="20" height="20" viewBox="0 0 20 20" fill="none" xmlns="http://www.w3.org/2000/svg">
<path d="M9.41802 18.0124C9.60251 18.12 9.69476 18.1739 9.82494 18.2018C9.92597 18.2234 10.0734 18.2234 10.1744 18.2018C10.3046 18.1739 10.3968 18.12 10.5813 18.0124C12.2047 17.0653 16.6663 14.0904 16.6663 10V6.83335C16.6663 5.93844 16.6663 5.49098 16.5284 5.17335C16.3882 4.85052 16.2485 4.67878 15.961 4.47577C15.6781 4.27604 15.1235 4.1607 14.0144 3.93003C12.792 3.6758 11.8532 3.21671 10.995 2.55278C10.5834 2.23441 10.3777 2.07522 10.2166 2.0318C10.0467 1.98598 9.95264 1.98598 9.78273 2.0318C9.6217 2.07522 9.41592 2.23441 9.00436 2.55278C8.14611 3.21671 7.20734 3.6758 5.98492 3.93003C4.87582 4.1607 4.32127 4.27604 4.03838 4.47577C3.75086 4.67878 3.61116 4.85052 3.47096 5.17335C3.33301 5.49098 3.33301 5.93844 3.33301 6.83335V10C3.33301 14.0904 7.79464 17.0653 9.41802 18.0124Z" stroke="white" stroke-width="2" stroke-linecap="round" stroke-linejoin="round"/>
</svg>
